<?xml version="1.0" encoding="UTF-8"?>
<svg id="Layer_1" xmlns="http://www.w3.org/2000/svg" version="1.1" viewBox="0 0 709.89 371.28">
  <!-- Generator: Adobe Illustrator 30.1.0, SVG Export Plug-In . SVG Version: 2.1.1 Build 136)  -->
  <defs>
    <style>
      .st0 {
        fill: #20324f;
      }

      .st1 {
        fill: #a4e543;
      }

      .st2 {
        fill: #fff;
      }
    </style>
  </defs>
  <g>
    <path class="st2" d="M633.95,195.45v41.29h-9.68v-5.29c-5.06,6.55-13.68,8.11-21.17,4.91-12.15-5.19-15.42-21.28-8.05-31.79,6.89-9.85,22.18-11.89,29.45-1.41l9.45-7.71ZM624.62,217.09c0-6.5-5.27-11.76-11.76-11.76s-11.76,5.27-11.76,11.76,5.27,11.76,11.76,11.76,11.76-5.27,11.76-11.76Z"/>
    <path class="st2" d="M337.1,220.4c1.6,10.28,15.62,12.46,21.55,4.7l6.87,5.03c-5.55,7.87-16.94,9.55-25.55,6.22-17.5-6.76-16.34-34.09,1.85-39.29,13.77-3.94,26.59,5.66,25.99,20.09-.04,1-.17,2.38-.54,3.24h-30.18ZM358.43,213.29c-1.95-12.26-18.85-11.72-21.18,0h21.18Z"/>
    <path class="st2" d="M396.15,220.4c1.6,10.28,15.62,12.46,21.55,4.7l6.87,5.03c-5.55,7.87-16.94,9.55-25.55,6.22-17.5-6.76-16.34-34.09,1.85-39.29,13.77-3.94,26.59,5.66,25.99,20.09-.04,1-.17,2.38-.54,3.24h-30.18ZM417.48,213.29c-1.95-12.26-18.85-11.72-21.18,0h21.18Z"/>
    <path class="st2" d="M470.46,209.81l-9.23,2.88c-3.45-10.43-19.11-9.47-21.41,1.36-1.89,8.92,4.85,16.6,14.06,14.36,3.74-.91,6.4-3.74,7.74-7.26l8.98,2.74c-4.59,14.97-25.27,18.8-35.77,7.56-6.44-6.89-7.22-18.53-1.95-26.31,9.31-13.74,32.24-11.25,37.57,4.67Z"/>
    <path class="st2" d="M589.14,209.81l-9.23,2.88c-3.45-10.43-19.11-9.47-21.41,1.36-1.89,8.92,4.85,16.6,14.06,14.36,3.74-.91,6.4-3.74,7.74-7.26l8.98,2.74c-4.59,14.97-25.27,18.8-35.77,7.56-6.44-6.89-7.22-18.53-1.95-26.31,9.31-13.74,32.24-11.25,37.57,4.67Z"/>
    <path class="st2" d="M488.19,197.26h12.71v8.32h-12.71v16.56c0,.39.32,1.53.45,1.97,1.59,5.26,8.13,4.91,12.25,3.1v8.7c-5.14,2.72-13,2.68-17.62-1.14-3.77-3.12-5.01-7.57-5.23-12.32-.26-5.55.21-11.3,0-16.87h-8.32l18.45-17.85v9.53Z"/>
    <rect class="st2" x="371.99" y="181.68" width="10.13" height="55.06"/>
    <rect class="st2" x="640.87" y="181.68" width="10.13" height="55.06"/>
    <path class="st2" d="M528.71,196.2v9.91l-.22.19c-5.72-.8-11.06,2.01-11.99,8.02-.1.63-.02,1.29-.2,1.92v20.5s-10.13,0-10.13,0v-39.48h10.13v4.99c.92-.86,1.68-1.91,2.65-2.72,2.65-2.21,6.31-3.32,9.75-3.33Z"/>
    <rect class="st2" x="532.68" y="197.26" width="10.13" height="39.48"/>
    <circle class="st1" cx="537.73" cy="184.34" r="6.89"/>
  </g>
  <g>
    <circle class="st1" cx="183.52" cy="184.87" r="139.82"/>
    <g>
      <path class="st2" d="M232.31,132.12l-12.69,105.49h-23.52l5.22-45.14-20.78,29.22c-1.25,1.76-3.26,2.83-5.42,2.89h0c-3.72.1-7.15-1.97-8.79-5.31l-13.16-26.8-5.23,45.14h-23.52l12.67-105.29,12.14.15c3.68.05,6.99,2.21,8.52,5.55l20.62,45.22,32.63-47.04c1.77-2.56,4.69-4.08,7.8-4.08h13.51Z"/>
      <path class="st2" d="M228.96,237.61l13.77-105.29c12.02.1,24.34-.81,36.37-.22,8.8.43,18.29,1.99,25.13,8.78,13.11,13.01,9.31,42.4-2.84,54.79-11.43,11.65-27.98,10.73-42.36,10.66l-4.1,31.27h-25.98Z"/>
      <path class="st2" d="M138.42,132.12l-3.7,28.51-25.12.1-10.21,76.88h-26.42l10.16-76.93h-25.2l1.24-9.7c1.38-10.76,11.31-18.86,23.1-18.86h56.15Z"/>
      <path class="st0" d="M262.89,179.11s13.6,0,13.6,0c6.48-.28,12.51-10.11,8.66-15.82-3.76-5.57-14.15-4.29-19.18-4.48l-3.08,20.3Z"/>
    </g>
  </g>
</svg>