<?xml version="1.0" encoding="UTF-8"?>
<svg id="Layer_1" xmlns="http://www.w3.org/2000/svg" version="1.1" viewBox="0 0 646 808">
  <!-- Generator: Adobe Illustrator 30.4.0, SVG Export Plug-In . SVG Version: 2.1.4 Build 226)  -->
  <defs>
    <style>
      .st0 {
        fill: #fff;
      }
    </style>
  </defs>
  <path class="st0" d="M187.24,113.9c90.86-.08,181.72,0,272.58-.03-.03,2.83-.04,5.66,0,8.49-90.82.15-181.65-.08-272.48.12-.18-2.86-.19-5.72-.1-8.58h0Z"/>
  <path class="st0" d="M187.24,147.6c90.86.1,181.71-.01,272.57.06-.05,3.82-.05,7.64,0,11.46-90.83.13-181.67-.08-272.49.1-.19-3.87-.15-7.74-.09-11.62h0Z"/>
  <path class="st0" d="M557.8,172.73c1.32-1.02,3.01-1.09,4.62-1.26.36,1.68-.16,3.3-1.53,4.37-24.23,23.06-48.85,45.71-72.3,69.58-29.7,29.76-58.29,60.65-85.43,92.77-50.74,59.26-94.14,124.69-129.89,194-6.1,11.66-11.83,23.51-18.04,35.11-.59.28-1.78.85-2.37,1.13-1.41-2.2-2.54-4.55-3.49-6.97-8.35-20.45-17.42-40.65-28.06-60.02-10.31-19.54-22.29-38.13-34.26-56.68-14.27-21.52-28.73-42.96-44.5-63.42-2.17-3.07-5.1-5.63-6.67-9.1,11.09,3.81,21.45,9.46,31.85,14.83,19.03,10.34,37.54,21.9,53.88,36.2,11.63,10.47,22.91,21.56,31.85,34.46,9.19-18.17,21.05-34.83,33.35-51.01,45.65-59.27,102.34-108.86,161-154.84,35.61-27.8,72.59-53.82,109.99-79.15h0Z"/>
  <path class="st0" d="M187.22,181.08c90.84.08,181.68,0,272.53.05.06,4.51,0,9.02.07,13.53-90.86.02-181.72.05-272.58-.01-.05-4.53-.03-9.05-.02-13.57h0Z"/>
  <path class="st0" d="M187.18,212.43c90.88-.15,181.75-.03,272.63-.06-.05,4.77-.05,9.53,0,14.29-90.86,0-181.72.06-272.58-.02-.05-4.74-.02-9.47-.06-14.21h0Z"/>
  <path class="st0" d="M187.18,243c88.55-.29,177.11-.05,265.66-.12-5.97,4.65-11.95,9.28-17.85,14.01-1.35,1.31-3.35.93-5.05,1.05-80.91-.11-161.82.12-242.73-.12,0-4.94.01-9.88-.03-14.82h0Z"/>
  <path class="st0" d="M187.36,290.29c-.27-5.91-.22-11.83-.04-17.73,75.97.19,151.93-.06,227.89.12-6.89,5.94-13.89,11.76-20.88,17.59-59.11-.28-118.23-.04-177.34-.12-9.88.08-19.76-.17-29.63.14h0Z"/>
  <path class="st0" d="M451.2,290.17c2.73-3.19,5.67-6.18,8.58-9.21,0,3.06,0,6.11,0,9.17-2.87.01-5.73.02-8.59.04h0Z"/>
  <path class="st0" d="M187.19,301.96c64.57-.18,129.16-.07,193.74-.06-6.47,5.83-12.94,11.67-19.33,17.59-1.34,1.12-2.49,2.98-4.5,2.66-56.61.06-113.21-.12-169.81.08-.21-6.75,0-13.51-.1-20.27h0Z"/>
  <path class="st0" d="M440.22,301.88c6.53-.04,13.06.01,19.59-.02-.06,6.75-.04,13.51,0,20.26-12.51.08-25.03-.01-37.54.03,5.89-6.83,12.08-13.41,17.94-20.27h0Z"/>
  <path class="st0" d="M413.43,332.34c15.45.07,30.91.01,46.36.02-.02,7.25-.03,14.51.03,21.76-21.59.1-43.19-.05-64.78.07,5.99-7.39,12.22-14.6,18.39-21.85h0Z"/>
  <path class="st0" d="M187.2,332.41c53.68-.11,107.36.02,161.04-.07-7.24,6.66-13.93,13.9-20.77,20.97-1.1,1.34-3.04.67-4.52.87-45.21-.01-90.43-.14-135.64.07-.23-7.28-.04-14.57-.11-21.84h0Z"/>
  <path class="st0" d="M187.23,363.14c43.53,0,87.07-.21,130.58.11-.09.22-.27.66-.35.88-6.56,6.79-12.42,14.21-18.8,21.15-37.13.34-74.28.02-111.42.16-.06-7.44-.05-14.87-.01-22.3h0Z"/>
  <path class="st0" d="M385.23,366.18c1.1-1.08,1.85-3.16,3.67-3.06,23.62-.06,47.26,0,70.88-.02,0,7.44,0,14.87,0,22.31-29.74,0-59.48,0-89.22,0,4.43-6.74,9.86-12.75,14.66-19.23h0Z"/>
  <path class="st0" d="M186.46,392.98c35.34-.3,70.7-.04,106.04-.13-6.27,8.22-12.94,16.17-18.71,24.76-15.93.18-31.85-.03-47.78.1-2.2-.1-4.79.4-6.44-1.43-10.31-8.76-21.68-16.11-33.11-23.3h0Z"/>
  <path class="st0" d="M346.91,417.67c5.74-8.45,11.77-16.7,17.87-24.89,31.68.17,63.37.03,95.05.07-.09,8.27-.04,16.53-.04,24.8-37.63.06-75.25.01-112.88.02h0Z"/>
  <path class="st0" d="M228.11,423.66c13.78-.05,27.56-.04,41.33,0-6.06,8.45-11.32,17.42-16.71,26.3-7.36-9.51-15.77-18.17-24.62-26.29h0Z"/>
  <path class="st0" d="M325.53,449.66c5.51-8.83,11.31-17.49,17.27-26.03,39.01.04,78.02-.06,117.03.05-.09,8.65-.04,17.31-.04,25.97-44.75.05-89.51.03-134.26,0h0Z"/>
  <path class="st0" d="M187.35,453.71c.89.72,1.73,1.5,2.32,2.51,5.17,8.2,10.37,16.38,15.33,24.71-5.93-.04-11.86.03-17.79-.07.06-9.05-.16-18.1.14-27.15h0Z"/>
  <path class="st0" d="M322.6,454.16c45.72-.16,91.45-.06,137.18-.05.02,8.93-.04,17.86.03,26.8-51.18,0-102.36,0-153.53,0,5.22-9.05,10.8-17.88,16.32-26.74h0Z"/>
  <path class="st0" d="M187.23,483.9c6.53-.03,13.07-.1,19.6.03,5.26,9.05,10.42,18.15,15.22,27.45-11.62.07-23.23.02-34.84.03,0-9.17-.03-18.34.02-27.51h0Z"/>
  <path class="st0" d="M304.3,483.99c51.83-.27,103.67-.04,155.5-.11-.03,9.16-.03,18.33,0,27.51-56.92.06-113.85.02-170.77.02,4.73-9.34,10.29-18.22,15.27-27.42h0Z"/>
  <path class="st0" d="M187.21,514.37c12.22.08,24.44-.19,36.65.14,4.24,9.33,9.09,18.38,12.98,27.87-16.54.1-33.08.02-49.61.04-.05-9.35-.02-18.7-.02-28.05h0Z"/>
  <path class="st0" d="M272.58,542.37c4.7-9.39,9.76-18.6,14.57-27.93,57.55-.15,115.11-.09,172.67-.03-.07,9.3-.07,18.61,0,27.91-62.41.21-124.83.11-187.24.05h0Z"/>
  <g>
    <path class="st0" d="M138.58,588.67c3.12-.6,6.09-.91,8.91-.91,3.02,0,6.14.3,9.37.91l42,69.2v-69.2c3.63-.6,7.1-.91,10.43-.91,3.12,0,6.14.3,9.07.91v108.64c-3.23.6-6.15.91-8.76.91-2.82,0-5.89-.3-9.22-.91l-42.31-69.05v69.05c-3.23.6-6.5.91-9.82.91s-6.55-.3-9.67-.91v-108.64Z"/>
    <path class="st0" d="M257.19,588.67c2.12-.3,4.13-.53,6.04-.68,1.91-.15,4.03-.23,6.35-.23,2.01,0,3.98.08,5.89.23,1.91.15,4.03.38,6.35.68l34,108.64c-4.13.6-8.16.91-12.09.91s-7.55-.3-11.18-.91l-6.04-21.76h-35.96l-6.19,21.76c-3.63.6-7.1.91-10.43.91-3.73,0-7.4-.3-11.03-.91l34.3-108.64ZM281.36,657.26l-12.54-45.63-13.14,45.63h25.69Z"/>
    <path class="st0" d="M320.49,588.21c4.63-.4,9.32-.73,14.05-.98,4.73-.25,9.52-.38,14.35-.38s10.15.5,15.34,1.51c5.19,1.01,9.87,2.9,14.05,5.67,4.18,2.77,7.58,6.62,10.2,11.56,2.62,4.94,3.93,11.33,3.93,19.19s-1.31,14.23-3.93,19.11c-2.62,4.89-5.99,8.74-10.12,11.56-4.13,2.82-8.74,4.74-13.82,5.74-5.09,1.01-10.1,1.51-15.03,1.51-1.31,0-2.54-.02-3.7-.08-1.16-.05-2.24-.12-3.25-.23v34.9c-1.91.3-3.78.5-5.59.6-1.81.1-3.58.15-5.29.15-1.61,0-3.38-.05-5.29-.15-1.91-.1-3.88-.3-5.89-.6v-109.09ZM342.55,644.12c1.21.2,2.34.3,3.4.3h3.85c2.52,0,4.99-.33,7.4-.98,2.42-.65,4.56-1.74,6.42-3.25,1.86-1.51,3.35-3.5,4.46-5.97,1.11-2.47,1.66-5.52,1.66-9.14s-.55-6.87-1.66-9.44c-1.11-2.57-2.6-4.63-4.46-6.2-1.87-1.56-4-2.67-6.42-3.32-2.42-.65-4.89-.98-7.4-.98-1.11,0-2.14.03-3.1.08-.96.05-2.34.18-4.15.38v38.53Z"/>
    <path class="st0" d="M401.03,588.67c3.72-.6,7.4-.91,11.03-.91s7.35.3,11.18.91v108.64c-3.83.6-7.51.91-11.03.91-3.73,0-7.46-.3-11.18-.91v-108.64Z"/>
    <path class="st0" d="M457.99,607.4h-27.05c-.6-3.02-.91-6.2-.91-9.52,0-3.12.3-6.19.91-9.22h76.3c.6,3.02.91,6.1.91,9.22,0,3.32-.3,6.5-.91,9.52h-27.05v89.9c-1.81.2-3.63.38-5.44.53-1.81.15-3.58.23-5.29.23s-3.55-.05-5.51-.15c-1.96-.1-3.96-.3-5.97-.6v-89.9Z"/>
  </g>
</svg>